<?xml version="1.0" encoding="UTF-8"?><svg id="Layer_2" xmlns="http://www.w3.org/2000/svg" viewBox="0 0 863.93 544"><g id="Layer_1-2"><g><path d="M431.72,59.92c-133.66,0-267.32,0-400.97,0-16.99,0-30.38-12.7-30.65-29.06C-.19,13.69,12.65,.45,30.04,.03c2.5-.06,5-.01,7.5-.01,264.48,0,528.97,0,793.45,0,16.94,0,28.93,8.74,32.2,23.46,4.16,18.71-9.82,36.37-29,36.43-25.5,.08-51,.01-76.49,.01-108.66,0-217.32,0-325.98,0Z"/><path d="M431.7,301.86c-133.66,0-267.32,0-400.98,0-17.94,0-31.05-13.34-30.63-31.02,.37-15.54,13.39-28.44,28.96-28.68,2.5-.04,5-.01,7.5-.01,265.49,0,530.98,0,796.47,0,14.65,0,26.34,8.6,29.84,21.89,3.57,13.55-2.06,27.78-14.43,34.01-4.7,2.37-10.47,3.67-15.76,3.67-133.66,.2-267.32,.15-400.98,.15Z"/><path d="M431.93,543.99c-133.16,0-266.31,0-399.47-.01-17.07,0-29.13-9.47-31.99-24.96-3.24-17.54,10.54-34.51,28.37-34.92,3.16-.07,6.33,0,9.5,0,264.98,0,529.96,0,794.94,0,16.99,0,30.35,12.7,30.62,29.09,.28,16.96-12.4,30.2-29.5,30.78-1.83,.06-3.67,.03-5.5,.03-132.32,0-264.65,0-396.97,0Z"/></g></g></svg>