<svg id="Group_9" data-name="Group 9" xmlns="http://www.w3.org/2000/svg" xmlns:xlink="http://www.w3.org/1999/xlink" width="13.109" height="10.72" viewBox="0 0 13.109 10.72">
  <defs>
    <clipPath id="clip-path">
      <rect id="Rectangle_28" data-name="Rectangle 28" width="13.109" height="10.72" fill="#fff"/>
    </clipPath>
  </defs>
  <g id="Group_8" data-name="Group 8" clip-path="url(#clip-path)">
    <path id="Path_2" data-name="Path 2" d="M.053,84.072c.072.037.125.062.175.09q2.946,1.7,5.89,3.4a.689.689,0,0,0,.761.008q3-1.744,6.016-3.476c.071-.041.144-.081.244-.138v.218q0,3.081,0,6.161a1.2,1.2,0,0,1-1.3,1.306q-5.248,0-10.5,0a1.189,1.189,0,0,1-1.3-1.288q0-3.045,0-6.089c0-.058,0-.116.009-.2" transform="translate(-0.042 -80.927)" fill="#fff"/>
    <path id="Path_3" data-name="Path 3" d="M6.55.008C8.3.008,10.042.024,11.788,0a1.255,1.255,0,0,1,1.32,1.32.507.507,0,0,1-.287.5Q9.711,3.6,6.616,5.4a.264.264,0,0,1-.308,0Q3.24,3.62.167,1.852A.261.261,0,0,1,0,1.572,6.279,6.279,0,0,1,.035.943,1.17,1.17,0,0,1,1.24.008q2.655,0,5.31,0" transform="translate(0 0)" fill="#fff"/>
  </g>
</svg>
