<svg xmlns="http://www.w3.org/2000/svg" xmlns:xlink="http://www.w3.org/1999/xlink" width="12.253" height="13.16" viewBox="0 0 12.253 13.16">
  <defs>
    <clipPath id="clip-path">
      <rect id="Rectangle_27" data-name="Rectangle 27" width="12.253" height="13.16" fill="#fff"/>
    </clipPath>
  </defs>
  <g id="Group_6" data-name="Group 6" clip-path="url(#clip-path)">
    <path id="Path_1" data-name="Path 1" d="M8.558,13.16a5.146,5.146,0,0,1-1.718-.33A7.178,7.178,0,0,1,5.4,12.09,11.083,11.083,0,0,1,3.9,10.9,17.018,17.018,0,0,1,2.5,9.409,14.477,14.477,0,0,1,1.1,7.464,8.852,8.852,0,0,1,.319,5.8,6.014,6.014,0,0,1,.033,4.55,4.581,4.581,0,0,1,.167,2.76,3.968,3.968,0,0,1,.981,1.242,4.2,4.2,0,0,1,1.588.673C1.735.558,1.871.428,2.013.3A1.34,1.34,0,0,1,2.391.061.79.79,0,0,1,3.1.113a1.988,1.988,0,0,1,.571.522,10.127,10.127,0,0,1,.585.87,5.9,5.9,0,0,1,.381.662,2.285,2.285,0,0,1,.228.743,1.161,1.161,0,0,1-.3.948c-.141.152-.306.283-.458.426a4.784,4.784,0,0,1-.479.368,1.006,1.006,0,0,0-.409.558,1.232,1.232,0,0,0,.007.6,2.91,2.91,0,0,0,.313.763,8,8,0,0,0,.85,1.2A11.7,11.7,0,0,0,5.334,8.8a4.641,4.641,0,0,0,.995.753,1.6,1.6,0,0,0,.647.2A.943.943,0,0,0,7.682,9.5a1.191,1.191,0,0,0,.128-.123,5.5,5.5,0,0,1,.582-.547,2.234,2.234,0,0,1,.359-.274,1.214,1.214,0,0,1,1.015-.1,2.447,2.447,0,0,1,.778.426c.284.225.558.462.835.7a4.082,4.082,0,0,1,.544.544,1.6,1.6,0,0,1,.28.475.784.784,0,0,1-.151.807,3.468,3.468,0,0,1-.313.308q-.252.233-.509.459a3.854,3.854,0,0,1-1.069.663,3.978,3.978,0,0,1-1.125.288c-.158.017-.318.021-.477.031" transform="translate(0 0)" fill="#fff"/>
  </g>
</svg>
