<?xml version="1.0" encoding="UTF-8"?><svg id="Layer_2" xmlns="http://www.w3.org/2000/svg" viewBox="0 0 262.35 262.26"><g id="Layer_1-2"><path d="M124.52,0c4.44,0,8.88,0,13.32,0,.75,.13,1.49,.34,2.24,.38,10.96,.65,21.67,2.72,32.05,6.23,27.72,9.37,50.2,25.92,66.79,50.07,20.83,30.34,27.8,63.82,20.79,99.9-6.6,33.93-24.38,61.11-52.38,81.21-27.16,19.49-57.67,27.22-90.98,23.62-19.14-2.07-37.04-8.01-53.26-18.25C28.38,221.25,7.53,190.01,1.41,149.23c-.59-3.95-.95-7.93-1.41-11.9,0-4.1,0-8.2,0-12.3,.34-3.12,.67-6.24,1.03-9.36,1.97-17.15,7.2-33.25,15.64-48.29,11.07-19.73,26.24-35.62,45.43-47.59C77.55,10.15,94.31,3.98,112.37,1.46c4.04-.57,8.1-.97,12.15-1.46Zm-41.97,100.06H23.23c-5.84,20.81-5.85,41.51,0,62.19h59.31c-1.68-20.75-1.7-41.35,.01-62.19Zm156.6,62.22c5.82-20.88,5.83-41.53-.02-62.2h-59.3c1.68,20.78,1.69,41.43,0,62.2h59.32Zm-78.22-62.13h-59.51c-1.85,20.8-1.86,41.4,0,62.04h59.51c1.85-20.8,1.86-41.4,0-62.04Zm-57.28-19.2h54.96c-.29-1.81-.52-3.41-.8-5-2.46-13.71-5.76-27.18-11.61-39.89-2.54-5.52-5.43-10.85-10.1-14.93-3.42-2.99-6.43-3.06-9.78,.02-1.92,1.78-3.76,3.78-5.15,5.98-10.37,16.37-14.09,34.9-17.51,53.83Zm.05,100.37c2.77,16.74,6.25,32.98,14.01,47.9,2.21,4.24,5.22,8.19,8.45,11.75,3.23,3.56,6.74,3.5,10.04,.05,2.85-2.99,5.47-6.35,7.5-9.94,5.73-10.09,8.98-21.14,11.58-32.38,1.31-5.69,2.32-11.44,3.51-17.38h-55.09Zm-2.5-158.19c-31.7,9.17-55.02,28.47-70.71,58.02h3.02c16.13,0,32.25-.05,48.38,.06,2.34,.02,3.21-.71,3.26-2.97,.03-1.43,.43-2.86,.68-4.29,3.08-17.51,7.38-34.65,15.37-50.82Zm130.68,58.02c-15.73-29.59-39.06-48.89-71.23-58.49,1.31,2.74,2.37,4.84,3.32,6.99,6.9,15.64,10.7,32.13,13.26,48.94,.32,2.1,1.09,2.6,3.08,2.6,16.21-.07,32.42-.04,48.64-.04h2.93ZM101.73,239.7c-1.36-2.87-2.43-5-3.39-7.17-6.85-15.47-10.58-31.81-13.17-48.44-.34-2.21-.98-2.96-3.3-2.94-16.13,.11-32.25,.06-48.38,.06h-3c15.69,29.56,39.01,48.86,71.23,58.5Zm130.15-58.5h-3.6c-14.93,0-29.86,0-44.8,0-5.89,0-5.76,.02-6.72,5.75-2.97,17.62-7.14,34.89-15.3,50.95-.2,.39-.31,.82-.65,1.75,32.03-9.61,55.34-28.87,71.07-58.46Z" style="fill:#fff;"/></g></svg>